<svg width="216" height="69" viewBox="0 0 216 69" fill="none" xmlns="http://www.w3.org/2000/svg">
<path d="M2.78578 45.1105C2.36791 41.3497 2.08933 37.3103 1.95004 32.9924C1.81076 28.2565 1.83397 24.1939 2.01969 20.8046C2.06612 20.4331 2.11255 19.7831 2.15898 18.8545C2.20541 17.8795 2.22862 17.1599 2.22862 16.6956C2.27505 16.1848 2.32148 15.5116 2.36791 14.6759C2.46077 13.7937 2.55363 13.0508 2.64649 12.4473C2.73935 11.8437 2.85542 11.1937 2.99471 10.4972C3.134 9.75433 3.2965 9.05789 3.48222 8.40787C3.71437 7.47928 4.3876 6.8757 5.50191 6.59712C6.61622 6.31854 7.6841 6.43461 8.70555 6.94534C9.72701 7.40964 10.2842 8.1293 10.377 9.10432C10.4699 10.2186 10.5163 11.5187 10.5163 13.0044C10.9342 12.308 11.3753 11.6812 11.8396 11.124C13.6039 8.89538 15.8093 7.33999 18.4558 6.45783C21.1023 5.57567 23.772 5.69174 26.4649 6.80605C28.8328 7.87393 30.69 9.75433 32.0364 12.4473C33.4293 15.0937 34.2651 17.8795 34.5436 20.8046C34.9615 24.9832 34.2883 28.9762 32.524 32.7834C30.8061 36.5907 28.2524 39.7479 24.8631 42.2551C21.5201 44.7158 17.7593 46.1784 13.5807 46.6427C13.2092 46.6891 12.861 46.6891 12.536 46.6427C13.0003 47.0141 13.6271 47.5713 14.4164 48.3141C15.2521 49.057 15.8325 49.5677 16.1575 49.8463C19.0361 52.2142 21.1951 54.0018 22.6344 55.2089C23.4702 55.8589 23.4237 56.4625 22.4952 57.0197C21.613 57.484 20.8469 57.4608 20.1969 56.95C19.454 56.3929 18.3629 55.5339 16.9236 54.3732C15.4843 53.166 14.3932 52.2839 13.6503 51.7267C12.3503 50.7053 11.6771 50.1713 11.6306 50.1249C12.0021 52.9107 12.0485 55.1393 11.7699 56.8108C11.6306 57.7858 11.0967 58.4822 10.1681 58.9001C9.2395 59.318 8.26447 59.3876 7.24302 59.109C6.268 58.8304 5.57155 58.2733 5.15369 57.4376C4.73582 56.6018 4.36438 55.5804 4.03938 54.3732C3.7608 53.166 3.57508 52.2607 3.48222 51.6571C3.38936 51.0071 3.25007 49.7999 3.06436 48.0356C2.87864 46.2712 2.78578 45.2962 2.78578 45.1105ZM14.6253 12.308C12.5824 14.8152 11.0967 17.9956 10.1681 21.8492C10.1681 26.8636 10.2145 30.578 10.3074 32.9924C10.4467 36.3353 10.6556 40.0264 10.9342 44.0658C11.1663 43.7872 11.4449 43.6015 11.7699 43.5087C15.6236 42.1158 19.0129 39.98 21.938 37.1014C24.8631 34.2227 26.9524 30.8334 28.206 26.9333C29.506 22.9868 29.715 18.9706 28.8328 14.8848C28.4614 13.2133 27.8113 11.774 26.8828 10.5669C25.9542 9.35968 24.7238 8.61681 23.1916 8.33823C21.613 8.05965 20.0576 8.31501 18.5254 9.10432C17.0397 9.84719 15.7396 10.9151 14.6253 12.308ZM63.7878 47.3391C63.7878 46.8284 64.0663 46.4802 64.6235 46.2944C65.1807 46.0623 65.7378 46.0623 66.295 46.2944C66.8521 46.4802 67.1075 46.8284 67.0611 47.3391C66.9682 50.5428 65.6682 53.0964 63.161 55C60.7002 56.95 57.868 57.6697 54.6644 57.159C52.1107 56.7875 49.8821 55.8125 47.9785 54.2339C46.0749 52.6089 44.6356 50.682 43.6605 48.4534C42.6855 46.2248 42.0123 43.8105 41.6408 41.2104C41.2694 38.5639 41.2462 35.9871 41.5712 33.4799C41.8962 30.9262 42.4998 28.628 43.382 26.5851C44.9606 23.01 46.7713 20.6189 48.8142 19.4117C51.2286 17.9259 54.0608 17.6938 57.3108 18.7152C58.5644 19.0867 59.6788 19.6438 60.6538 20.3867C61.6752 21.1296 62.4877 21.9653 63.0913 22.8939C63.6949 23.7761 64.2056 24.8207 64.6235 26.0279C65.0878 27.2351 65.4128 28.3958 65.5985 29.5101C65.8307 30.578 65.9932 31.7852 66.086 33.1316C66.1789 34.2924 65.5057 34.9888 64.0663 35.221C62.6735 35.4531 61.5824 35.1746 60.7931 34.3852C56.9858 33.5031 53.1786 33.6192 49.3714 34.7335C49.3249 35.5228 49.3017 36.3121 49.3017 37.1014C49.2089 39.9336 49.441 42.6265 49.9982 45.1801C50.6946 48.3838 51.5071 50.7285 52.4357 52.2142C53.1322 53.3285 54.1536 54.0714 55.5001 54.4428C56.8465 54.8143 58.1234 54.7214 59.3305 54.1643C60.677 53.6071 61.7217 52.7017 62.4645 51.4481C63.2538 50.1945 63.6949 48.8249 63.7878 47.3391ZM50.3464 29.0226C50.0678 29.9976 49.8589 30.9959 49.7196 32.0173C53.1554 31.1816 56.6144 31.0887 60.0966 31.7388C59.7252 28.4887 59.1448 26.0743 58.3555 24.4957C58.0305 23.9386 57.6823 23.4279 57.3108 22.9636C56.9394 22.4528 56.5215 21.9885 56.0572 21.5707C55.5929 21.1528 55.0822 20.9671 54.5251 21.0135C53.9679 21.0599 53.434 21.4082 52.9232 22.0582C52.6911 22.3368 52.4589 22.685 52.2268 23.1028C52.0411 23.4743 51.8786 23.8225 51.7393 24.1475C51.6 24.4261 51.4375 24.844 51.2518 25.4011C51.1125 25.9583 50.9964 26.3529 50.9036 26.5851C50.8571 26.8172 50.741 27.2583 50.5553 27.9083C50.416 28.5583 50.3464 28.9298 50.3464 29.0226ZM90.8435 33.6888C91.1685 34.1067 91.1685 34.5245 90.8435 34.9424C90.6578 35.221 90.4489 35.4531 90.2167 35.6388C90.031 35.8246 89.7757 35.9639 89.4507 36.0567C89.1256 36.1496 88.8471 36.2424 88.6149 36.3353C88.3828 36.3817 88.0578 36.4282 87.6399 36.4746C87.222 36.4746 86.9202 36.4746 86.7345 36.4746C86.5488 36.4746 86.2238 36.4746 85.7595 36.4746C85.3416 36.4746 85.0631 36.4746 84.9238 36.4746C81.2558 36.4282 78.7254 36.4282 77.3325 36.4746C76.9147 36.4746 76.4736 36.4049 76.0093 36.2656C75.5914 36.1264 75.22 35.8942 74.895 35.5692C74.57 35.1978 74.4075 34.7799 74.4075 34.3156C74.4075 33.6656 74.7325 33.1316 75.3825 32.7138C76.0325 32.2959 76.6825 32.1102 77.3325 32.1566C78.7254 32.2031 81.2558 32.2031 84.9238 32.1566C85.0631 32.1566 85.3416 32.1566 85.7595 32.1566C86.2238 32.1566 86.5488 32.1566 86.7345 32.1566C86.9202 32.1566 87.222 32.1798 87.6399 32.2263C88.0578 32.2263 88.3828 32.2727 88.6149 32.3656C88.8471 32.412 89.1256 32.4816 89.4507 32.5745C89.7757 32.6674 90.031 32.8066 90.2167 32.9924C90.4489 33.1781 90.6578 33.4102 90.8435 33.6888ZM110.37 40.1657C110.045 39.9336 109.464 39.5622 108.628 39.0514C107.793 38.4943 107.143 38.0764 106.678 37.7978C106.261 37.4728 105.727 37.0782 105.077 36.6139C104.427 36.1496 103.823 35.6853 103.266 35.221C102.755 34.7567 102.268 34.2692 101.803 33.7584C100.039 31.9013 98.9479 29.7423 98.53 27.2815C98.1121 24.8207 98.2282 22.4528 98.8782 20.1778C99.5747 17.9027 100.643 15.6973 102.082 13.5616C103.475 11.5651 105.193 10.0097 107.236 8.89538C109.325 7.78107 111.53 7.31678 113.852 7.50249C116.173 7.68821 118.239 8.66324 120.05 10.4276C122.511 12.8419 124.136 16.092 124.925 20.1778C125.761 24.2172 125.9 28.2101 125.343 32.1566C125.25 32.6674 124.902 33.0388 124.298 33.2709C123.741 33.4567 123.207 33.4567 122.697 33.2709C122.186 33.0388 121.977 32.6674 122.07 32.1566C122.813 26.9565 122.302 22.0118 120.538 17.3224C120.213 16.4866 119.818 15.6741 119.354 14.8848C118.936 14.0491 118.402 13.2598 117.752 12.5169C117.102 11.774 116.429 11.2169 115.732 10.8454C115.082 10.474 114.316 10.3579 113.434 10.4972C112.598 10.6365 111.739 11.1008 110.857 11.8901C108.489 14.1651 106.841 17.4849 105.912 21.8492C105.123 25.7493 106.121 29.0226 108.907 31.6691C109.928 32.6441 111.345 33.7584 113.155 35.012C115.013 36.2656 116.568 37.3567 117.822 38.2853C119.122 39.1675 120.329 40.3979 121.443 41.9765C122.557 43.5551 123.231 45.3194 123.463 47.2695C123.695 48.9874 123.416 50.6356 122.627 52.2142C121.838 53.7928 120.677 55.0464 119.145 55.975C116.173 57.7858 112.923 57.9715 109.395 56.5322C107.537 55.7893 105.889 54.4893 104.45 52.6321C103.057 50.7749 102.291 48.8481 102.152 46.8516C102.059 44.8087 102.918 42.9747 104.728 41.3497C105.378 40.839 106.121 40.839 106.957 41.3497C107.746 41.8604 107.769 42.4176 107.027 43.0212C106.33 43.5783 105.866 44.2748 105.634 45.1105C105.402 45.9462 105.378 46.782 105.564 47.6177C105.796 48.4534 106.144 49.2659 106.609 50.0552C107.119 50.8445 107.7 51.541 108.35 52.1446C109.046 52.7017 109.766 53.1196 110.509 53.3982C112.18 54.0018 113.712 53.7232 115.105 52.5624C116.498 51.3553 117.102 49.8927 116.916 48.1748C116.73 46.5034 116.057 45.0408 114.896 43.7872C113.736 42.5336 112.227 41.3265 110.37 40.1657ZM163.785 55.6268C164.481 56.7411 164.272 57.5536 163.158 58.0644C162.09 58.6215 161.045 58.7376 160.024 58.4126C158.492 57.9019 157.238 57.0661 156.263 55.9054C155.334 54.7446 154.731 53.4446 154.452 52.0053C154.174 50.566 153.988 49.0338 153.895 47.4088C153.802 45.7837 153.826 44.2515 153.965 42.8122C153.826 43.2301 153.733 43.4622 153.686 43.5087C153.686 43.6015 153.524 44.0658 153.199 44.9016C152.874 45.7373 152.665 46.2712 152.572 46.5034C152.479 46.6891 152.27 47.1534 151.945 47.8963C151.62 48.5927 151.365 49.1034 151.179 49.4284C150.993 49.7535 150.738 50.1713 150.413 50.682C150.088 51.1928 149.763 51.6571 149.438 52.0749C149.113 52.4464 148.765 52.7946 148.393 53.1196C147.186 54.1411 145.77 54.7911 144.145 55.0696C142.566 55.3482 141.034 55.1857 139.548 54.5821C136.763 53.5143 134.859 51.1231 133.838 47.4088C133.002 44.1123 132.746 40.7693 133.071 37.38C133.396 33.9442 134.279 30.6941 135.718 27.6297C137.25 24.3332 139.293 21.7796 141.847 19.9688C144.447 18.1117 147.372 17.6242 150.622 18.5063C152.897 19.1099 154.847 20.4099 156.472 22.4064C156.751 21.6171 157.122 20.9671 157.586 20.4564C157.958 20.0849 158.468 19.8992 159.118 19.8992C159.768 19.8528 160.256 20.0385 160.581 20.4564C160.767 20.7349 160.929 21.0367 161.069 21.3617C161.208 21.6867 161.324 22.035 161.417 22.4064C161.51 22.7314 161.579 23.1028 161.626 23.5207C161.719 23.8922 161.788 24.2868 161.835 24.7047C161.881 25.0761 161.904 25.4708 161.904 25.8886C161.951 26.2601 161.974 26.6315 161.974 27.0029C161.974 27.3744 161.974 27.7458 161.974 28.1172C161.974 28.4887 161.974 28.8369 161.974 29.1619C161.974 29.7655 161.974 31.2048 161.974 33.4799C162.02 35.7549 162.044 37.5192 162.044 38.7728C162.044 43.8337 162.067 47.0141 162.113 48.3141C162.206 51.6106 162.763 54.0482 163.785 55.6268ZM154.801 30.5548C154.986 29.1619 155.149 28.0244 155.288 27.1422C154.684 25.9351 153.895 24.96 152.92 24.2172C150.413 22.2671 148.3 21.9653 146.582 23.3118C144.957 24.6118 143.448 27.0494 142.056 30.6244C141.034 33.3638 140.454 36.1728 140.314 39.0514C140.222 42.4872 140.547 45.4123 141.29 47.8266C141.8 49.4517 142.45 50.566 143.24 51.1696C144.215 51.9124 145.422 51.3088 146.861 49.3588C148.022 47.8266 149.438 44.948 151.109 40.7229C151.62 39.33 152.85 35.9639 154.801 30.6244C154.801 30.6244 154.801 30.6012 154.801 30.5548ZM180.692 41.489C180.785 42.2319 180.901 43.2765 181.041 44.623C181.226 45.923 181.366 46.9909 181.459 47.8266C181.551 48.6159 181.621 49.6838 181.667 51.0303C181.714 52.3303 181.644 53.3517 181.459 54.0946C181.273 55.0696 180.716 55.7661 179.787 56.184C178.905 56.6018 177.953 56.6715 176.932 56.3929C175.91 56.1607 175.191 55.6036 174.773 54.7214C174.494 54.1643 174.239 53.5375 174.007 52.841C173.774 52.0981 173.589 51.4249 173.449 50.8213C173.31 50.2177 173.171 49.4981 173.032 48.6624C172.939 47.7802 172.869 47.0837 172.823 46.573C172.776 46.0159 172.707 45.273 172.614 44.3444C172.521 43.3694 172.451 42.6729 172.405 42.2551C171.987 37.9835 171.708 33.7584 171.569 29.5798C171.29 19.6903 171.732 11.2401 172.892 4.22921C173.032 3.20775 173.658 2.48809 174.773 2.07023C175.933 1.60593 177.048 1.58272 178.116 2.00058C179.184 2.41845 179.717 3.16133 179.717 4.22921C179.717 4.41493 179.717 8.59359 179.717 16.7652C179.717 24.8904 179.787 29.0458 179.926 29.2316C180.112 33.3638 180.367 37.4496 180.692 41.489ZM211.85 47.3391C211.85 46.8284 212.129 46.4802 212.686 46.2944C213.243 46.0623 213.8 46.0623 214.357 46.2944C214.915 46.4802 215.17 46.8284 215.123 47.3391C215.031 50.5428 213.731 53.0964 211.223 55C208.763 56.95 205.93 57.6697 202.727 57.159C200.173 56.7875 197.945 55.8125 196.041 54.2339C194.137 52.6089 192.698 50.682 191.723 48.4534C190.748 46.2248 190.075 43.8105 189.703 41.2104C189.332 38.5639 189.309 35.9871 189.634 33.4799C189.959 30.9262 190.562 28.628 191.444 26.5851C193.023 23.01 194.834 20.6189 196.877 19.4117C199.291 17.9259 202.123 17.6938 205.373 18.7152C206.627 19.0867 207.741 19.6438 208.716 20.3867C209.738 21.1296 210.55 21.9653 211.154 22.8939C211.757 23.7761 212.268 24.8207 212.686 26.0279C213.15 27.2351 213.475 28.3958 213.661 29.5101C213.893 30.578 214.056 31.7852 214.148 33.1316C214.241 34.2924 213.568 34.9888 212.129 35.221C210.736 35.4531 209.645 35.1746 208.855 34.3852C205.048 33.5031 201.241 33.6192 197.434 34.7335C197.387 35.5228 197.364 36.3121 197.364 37.1014C197.271 39.9336 197.503 42.6265 198.061 45.1801C198.757 48.3838 199.57 50.7285 200.498 52.2142C201.195 53.3285 202.216 54.0714 203.563 54.4428C204.909 54.8143 206.186 54.7214 207.393 54.1643C208.739 53.6071 209.784 52.7017 210.527 51.4481C211.316 50.1945 211.757 48.8249 211.85 47.3391ZM198.409 29.0226C198.13 29.9976 197.921 30.9959 197.782 32.0173C201.218 31.1816 204.677 31.0887 208.159 31.7388C207.788 28.4887 207.207 26.0743 206.418 24.4957C206.093 23.9386 205.745 23.4279 205.373 22.9636C205.002 22.4528 204.584 21.9885 204.12 21.5707C203.655 21.1528 203.145 20.9671 202.588 21.0135C202.03 21.0599 201.496 21.4082 200.986 22.0582C200.754 22.3368 200.521 22.685 200.289 23.1028C200.104 23.4743 199.941 23.8225 199.802 24.1475C199.662 24.4261 199.5 24.844 199.314 25.4011C199.175 25.9583 199.059 26.3529 198.966 26.5851C198.92 26.8172 198.803 27.2583 198.618 27.9083C198.478 28.5583 198.409 28.9298 198.409 29.0226Z" fill="#F25C54"/>
</svg>
