<svg width="78" height="40" viewBox="0 0 78 40" fill="none" xmlns="http://www.w3.org/2000/svg">
<path d="M47.1052 23.6255V38.9046H8.83279C4.47216 38.9046 0.924316 35.4774 0.924316 31.2651C0.924316 27.0527 4.47216 23.6255 8.83279 23.6255H47.1052Z" fill="#F2F2F2"/>
<path d="M48.045 38.7874C48.045 38.9432 47.9831 39.0927 47.8729 39.2029C47.7627 39.313 47.6133 39.375 47.4575 39.375H8.1509C6.01608 39.375 3.9687 38.5268 2.45916 37.017C0.949617 35.5071 0.101562 33.4594 0.101562 31.3241C0.101562 29.1889 0.949617 27.1411 2.45916 25.6313C3.9687 24.1214 6.01608 23.2732 8.1509 23.2732H47.4575C47.6133 23.2732 47.7628 23.3351 47.873 23.4453C47.9831 23.5555 48.045 23.705 48.045 23.8609C48.045 24.0167 47.9831 24.1662 47.873 24.2764C47.7628 24.3866 47.6133 24.4485 47.4575 24.4485H8.1509C6.32773 24.4485 4.57924 25.1729 3.29007 26.4623C2.0009 27.7518 1.27665 29.5006 1.27665 31.3241C1.27665 33.1476 2.0009 34.8965 3.29007 36.1859C4.57924 37.4753 6.32773 38.1997 8.1509 38.1997H47.4575C47.6133 38.1998 47.7627 38.2617 47.8729 38.3719C47.9831 38.4821 48.045 38.6315 48.045 38.7874Z" fill="#FE574E"/>
<path d="M47.1044 27.1516H5.9764C5.94523 27.1516 5.91534 27.1392 5.89331 27.1171C5.87127 27.0951 5.85889 27.0652 5.85889 27.034C5.85889 27.0029 5.87127 26.973 5.89331 26.9509C5.91534 26.9289 5.94523 26.9165 5.9764 26.9165H47.1044C47.1355 26.9165 47.1654 26.9289 47.1875 26.9509C47.2095 26.973 47.2219 27.0029 47.2219 27.034C47.2219 27.0652 47.2095 27.0951 47.1875 27.1171C47.1654 27.1392 47.1355 27.1516 47.1044 27.1516Z" fill="#CCCCCC"/>
<path d="M47.1044 29.9724H5.9764C5.94523 29.9724 5.91534 29.96 5.89331 29.9379C5.87127 29.9159 5.85889 29.886 5.85889 29.8548C5.85889 29.8237 5.87127 29.7938 5.89331 29.7717C5.91534 29.7497 5.94523 29.7373 5.9764 29.7373H47.1044C47.1355 29.7373 47.1654 29.7497 47.1875 29.7717C47.2095 29.7938 47.2219 29.8237 47.2219 29.8548C47.2219 29.886 47.2095 29.9159 47.1875 29.9379C47.1654 29.96 47.1355 29.9724 47.1044 29.9724Z" fill="#CCCCCC"/>
<path d="M47.1044 32.7934H5.9764C5.94523 32.7934 5.91534 32.781 5.89331 32.759C5.87127 32.7369 5.85889 32.7071 5.85889 32.6759C5.85889 32.6447 5.87127 32.6148 5.89331 32.5928C5.91534 32.5707 5.94523 32.5583 5.9764 32.5583H47.1044C47.1355 32.5583 47.1654 32.5707 47.1875 32.5928C47.2095 32.6148 47.2219 32.6447 47.2219 32.6759C47.2219 32.7071 47.2095 32.7369 47.1875 32.759C47.1654 32.781 47.1355 32.7934 47.1044 32.7934Z" fill="#CCCCCC"/>
<path d="M47.1044 35.6145H5.9764C5.94523 35.6145 5.91534 35.6021 5.89331 35.58C5.87127 35.558 5.85889 35.5281 5.85889 35.4969C5.85889 35.4658 5.87127 35.4359 5.89331 35.4138C5.91534 35.3918 5.94523 35.3794 5.9764 35.3794H47.1044C47.1355 35.3794 47.1654 35.3918 47.1875 35.4138C47.2095 35.4359 47.2219 35.4658 47.2219 35.4969C47.2219 35.5281 47.2095 35.558 47.1875 35.58C47.1654 35.6021 47.1355 35.6145 47.1044 35.6145Z" fill="#CCCCCC"/>
<path d="M76.6838 26.5016L67.0992 38.3991L37.2973 14.3815C33.9017 11.645 33.289 6.7499 35.9314 3.46982C38.5738 0.189737 43.4863 -0.252532 46.8818 2.48396L76.6838 26.5016Z" fill="#F2F2F2"/>
<path d="M67.9051 38.8978C67.8073 39.0191 67.6653 39.0966 67.5104 39.1133C67.3555 39.13 67.2003 39.0844 67.079 38.9867L36.4717 14.32C34.8094 12.9804 33.7472 11.035 33.5189 8.91205C33.2905 6.78906 33.9147 4.6623 35.2542 2.99964C36.5936 1.33697 38.5385 0.274587 40.6611 0.0462093C42.7837 -0.182168 44.91 0.442165 46.5723 1.78186L77.1796 26.4485C77.2397 26.4969 77.2897 26.5567 77.3268 26.6244C77.3638 26.6922 77.3871 26.7666 77.3954 26.8433C77.4037 26.9201 77.3967 26.9977 77.375 27.0718C77.3533 27.1459 77.3172 27.2149 77.2687 27.275C77.2203 27.3352 77.1605 27.3851 77.0928 27.4221C77.025 27.4591 76.9507 27.4824 76.8739 27.4906C76.7972 27.4989 76.7195 27.4919 76.6455 27.4701C76.5714 27.4483 76.5024 27.4122 76.4423 27.3637L45.8351 2.69705C45.1322 2.13012 44.3245 1.70726 43.4582 1.45261C42.5918 1.19796 41.6838 1.11652 40.786 1.21294C39.8882 1.30936 39.0182 1.58175 38.2257 2.01456C37.4331 2.44736 36.7336 3.03209 36.1671 3.73536C35.6005 4.43862 35.1781 5.24663 34.9238 6.11323C34.6696 6.97983 34.5885 7.88805 34.6852 8.78599C34.782 9.68394 35.0547 10.554 35.4877 11.3465C35.9207 12.1391 36.5056 12.8385 37.209 13.4049L67.8162 38.0715C67.9375 38.1693 68.015 38.3113 68.0317 38.4663C68.0483 38.6212 68.0028 38.7764 67.9051 38.8978Z" fill="#CCCCCC"/>
<path d="M74.4722 29.2477L42.4466 3.43806C42.4346 3.42837 42.4246 3.41641 42.4172 3.40287C42.4098 3.38932 42.4052 3.37445 42.4035 3.3591C42.4019 3.34376 42.4032 3.32824 42.4076 3.31343C42.4119 3.29862 42.4192 3.28481 42.4288 3.27279C42.4385 3.26077 42.4505 3.25078 42.464 3.24338C42.4776 3.23599 42.4924 3.23133 42.5078 3.22968C42.5231 3.22803 42.5386 3.22941 42.5534 3.23376C42.5682 3.23811 42.5821 3.24533 42.5941 3.25502L74.6196 29.0647C74.6317 29.0743 74.6417 29.0863 74.6491 29.0999C74.6565 29.1134 74.6612 29.1283 74.6628 29.1436C74.6645 29.159 74.6631 29.1745 74.6588 29.1894C74.6544 29.2042 74.6472 29.218 74.6375 29.23C74.6278 29.2421 74.6159 29.2521 74.6023 29.2595C74.5887 29.2669 74.5739 29.2715 74.5585 29.2731C74.5431 29.2748 74.5276 29.2734 74.5128 29.269C74.498 29.2647 74.4842 29.2574 74.4722 29.2477V29.2477Z" fill="#CCCCCC"/>
<path d="M72.702 31.4439L40.6765 5.63425C40.6523 5.61468 40.6368 5.58629 40.6335 5.55532C40.6302 5.52435 40.6393 5.49333 40.6588 5.46908C40.6784 5.44483 40.7067 5.42933 40.7377 5.42598C40.7686 5.42262 40.7997 5.4317 40.8239 5.45121L72.8495 31.2609C72.8615 31.2705 72.8715 31.2825 72.8789 31.296C72.8864 31.3096 72.891 31.3245 72.8927 31.3398C72.8944 31.3552 72.893 31.3707 72.8886 31.3856C72.8843 31.4004 72.8771 31.4142 72.8674 31.4262C72.8577 31.4383 72.8457 31.4483 72.8322 31.4557C72.8186 31.4631 72.8037 31.4677 72.7884 31.4693C72.773 31.471 72.7575 31.4696 72.7427 31.4652C72.7279 31.4609 72.714 31.4536 72.702 31.4439Z" fill="#CCCCCC"/>
<path d="M70.9326 33.6405L38.9071 7.83088C38.8828 7.81132 38.8673 7.78292 38.864 7.75193C38.8606 7.72094 38.8697 7.68989 38.8893 7.66562C38.9088 7.64134 38.9372 7.62583 38.9682 7.6225C38.9992 7.61917 39.0303 7.62828 39.0545 7.64784L71.0801 33.4575C71.0921 33.4672 71.1021 33.4791 71.1095 33.4927C71.1169 33.5062 71.1215 33.5211 71.1232 33.5364C71.1248 33.5518 71.1234 33.5673 71.1191 33.5821C71.1147 33.5969 71.1075 33.6107 71.0978 33.6228C71.0882 33.6348 71.0762 33.6448 71.0627 33.6522C71.0491 33.6596 71.0343 33.6642 71.0189 33.6659C71.0036 33.6675 70.988 33.6661 70.9732 33.6618C70.9584 33.6574 70.9446 33.6502 70.9326 33.6405V33.6405Z" fill="#CCCCCC"/>
<path d="M69.1631 35.8368L37.1375 10.0272C37.1255 10.0175 37.1155 10.0055 37.1081 9.99198C37.1007 9.97843 37.0961 9.96356 37.0944 9.94822C37.0928 9.93287 37.0942 9.91735 37.0985 9.90254C37.1029 9.88773 37.1101 9.87392 37.1198 9.8619C37.1294 9.84988 37.1414 9.83989 37.1549 9.8325C37.1685 9.8251 37.1833 9.82044 37.1987 9.81879C37.214 9.81714 37.2296 9.81852 37.2444 9.82287C37.2592 9.82722 37.273 9.83444 37.285 9.84413L69.3105 35.6538C69.3226 35.6635 69.3326 35.6754 69.34 35.689C69.3474 35.7025 69.3521 35.7174 69.3537 35.7327C69.3554 35.7481 69.354 35.7636 69.3497 35.7785C69.3453 35.7933 69.3381 35.8071 69.3284 35.8191C69.3187 35.8312 69.3068 35.8412 69.2932 35.8486C69.2797 35.856 69.2648 35.8606 69.2494 35.8623C69.2341 35.8639 69.2185 35.8625 69.2037 35.8581C69.1889 35.8538 69.1751 35.8465 69.1631 35.8368Z" fill="#CCCCCC"/>
<path d="M24.0452 18.375C22.3285 18.3637 20.6332 17.9924 19.0689 17.2849C18.9758 17.2434 18.8968 17.1757 18.8415 17.0901C18.7861 17.0044 18.7569 16.9045 18.7573 16.8026V12.5223C18.7575 12.3821 18.8132 12.2476 18.9124 12.1485C19.0115 12.0493 19.1459 11.9936 19.2861 11.9934H28.8043C28.9445 11.9936 29.0789 12.0493 29.178 12.1485C29.2772 12.2476 29.3329 12.3821 29.3331 12.5223V16.8026C29.3335 16.9045 29.3043 17.0044 29.249 17.0901C29.1936 17.1757 29.1146 17.2434 29.0215 17.2849C27.4572 17.9924 25.7619 18.3637 24.0452 18.375Z" fill="#FE574E"/>
<path d="M24.0433 14.9072C23.9728 14.9073 23.9029 14.8932 23.8378 14.8659L16.29 11.6808C16.1927 11.6397 16.1099 11.5705 16.0523 11.4819C15.9947 11.3933 15.9649 11.2895 15.9669 11.1839C15.9688 11.0782 16.0024 10.9756 16.0632 10.8892C16.124 10.8028 16.2092 10.7365 16.308 10.6991L23.8559 7.83509C23.9775 7.78875 24.1119 7.78903 24.2333 7.83589L31.68 10.6999C31.7782 10.7376 31.863 10.8039 31.9233 10.8901C31.9837 10.9763 32.017 11.0785 32.0189 11.1838C32.0209 11.289 31.9914 11.3924 31.9342 11.4808C31.8771 11.5691 31.7949 11.6385 31.6981 11.6798L24.2513 14.8648C24.1855 14.8929 24.1148 14.9073 24.0433 14.9072Z" fill="#FE574E"/>
<path d="M19.6377 17.5762C20.0271 17.5762 20.3427 17.2604 20.3427 16.871C20.3427 16.4815 20.0271 16.1658 19.6377 16.1658C19.2483 16.1658 18.9326 16.4815 18.9326 16.871C18.9326 17.2604 19.2483 17.5762 19.6377 17.5762Z" fill="#3F3D56"/>
<path opacity="0.2" d="M31.7239 11.2284L24.2771 14.4134C24.219 14.4382 24.1566 14.4511 24.0934 14.4513C24.0303 14.4514 23.9677 14.4388 23.9096 14.4143L16.3618 11.2293C16.267 11.1903 16.1879 11.1208 16.137 11.0317C16.1037 11.0895 16.0831 11.1536 16.0765 11.2199C16.0699 11.2862 16.0775 11.3532 16.0988 11.4163C16.12 11.4795 16.1545 11.5374 16.1998 11.5862C16.2452 11.635 16.3004 11.6736 16.3618 11.6995L23.9096 14.8844C23.9677 14.909 24.0303 14.9215 24.0934 14.9214C24.1566 14.9212 24.219 14.9084 24.2771 14.8835L31.7239 11.6985C31.785 11.6725 31.8399 11.6337 31.8849 11.5849C31.93 11.5361 31.9641 11.4782 31.9852 11.4152C32.0062 11.3522 32.0137 11.2854 32.007 11.2193C32.0003 11.1532 31.9797 11.0893 31.9466 11.0317C31.8961 11.12 31.8178 11.1892 31.7239 11.2284Z" fill="black"/>
<path d="M19.6971 16.8682C19.7283 16.8682 19.7582 16.8558 19.7802 16.8338C19.8022 16.8117 19.8146 16.7818 19.8146 16.7507V12.8179L23.6902 11.4057C23.7213 11.4062 23.7514 11.3942 23.7738 11.3725C23.7961 11.3508 23.809 11.3211 23.8094 11.2899C23.8099 11.2588 23.798 11.2287 23.7763 11.2063C23.7546 11.1839 23.7248 11.1711 23.6937 11.1707L19.8181 12.5828C19.7869 12.5821 19.7559 12.5877 19.727 12.5993C19.698 12.611 19.6717 12.6283 19.6497 12.6504C19.6274 12.6722 19.6097 12.6983 19.5977 12.7271C19.5856 12.7558 19.5795 12.7867 19.5796 12.8179V16.7507C19.5796 16.7818 19.592 16.8117 19.614 16.8338C19.636 16.8558 19.6659 16.8682 19.6971 16.8682Z" fill="#3F3D56"/>
</svg>
