<svg width="114" height="25" viewBox="0 0 114 25" fill="none" xmlns="http://www.w3.org/2000/svg">
<path d="M70.4059 1.30021C69.6459 1.30073 68.9173 1.60299 68.3801 2.14054C67.8429 2.67809 67.5411 3.40695 67.5411 4.1669C67.5411 4.92685 67.8429 5.6557 68.3801 6.19325C68.9173 6.7308 69.6459 7.03306 70.4059 7.03358H112.988C112.773 7.42674 112.457 7.75496 112.073 7.98374C111.688 8.21252 111.248 8.33342 110.801 8.33374H26.1593C25.055 8.3325 23.9964 7.89293 23.216 7.11162C22.4357 6.3303 21.9974 5.27116 21.9976 4.1669C21.9981 3.06285 22.4366 2.00411 23.2168 1.22294C23.997 0.441778 25.0552 0.00198269 26.1593 4.76837e-05H110.801C111.248 0.000379562 111.688 0.121289 112.073 0.350072C112.457 0.578856 112.773 0.907065 112.988 1.30022L70.4059 1.30021Z" fill="#CCCCCC"/>
<path d="M113.045 5.45408H72.5591C72.4972 5.45423 72.4378 5.47896 72.394 5.52283C72.3503 5.5667 72.3257 5.62613 72.3257 5.6881C72.3257 5.75007 72.3503 5.80951 72.394 5.85338C72.4378 5.89725 72.4972 5.92197 72.5591 5.92212H113.045C113.106 5.92197 113.166 5.89725 113.21 5.85338C113.253 5.80951 113.278 5.75007 113.278 5.6881C113.278 5.62613 113.253 5.5667 113.21 5.52283C113.166 5.47896 113.106 5.45423 113.045 5.45408Z" fill="#CCCCCC"/>
<path d="M113.045 3.93261H72.5597C72.4976 3.93261 72.4381 3.95726 72.3942 4.00114C72.3503 4.04503 72.3257 4.10456 72.3257 4.16662C72.3257 4.22869 72.3503 4.28821 72.3942 4.3321C72.4381 4.37598 72.4976 4.40063 72.5597 4.40063H113.045C113.107 4.40063 113.167 4.37598 113.211 4.3321C113.254 4.28821 113.279 4.22869 113.279 4.16662C113.279 4.10456 113.254 4.04503 113.211 4.00114C113.167 3.95726 113.107 3.93261 113.045 3.93261Z" fill="#CCCCCC"/>
<path d="M113.045 2.41137H72.5591C72.4972 2.41151 72.4378 2.43623 72.394 2.4801C72.3503 2.52397 72.3257 2.58341 72.3257 2.64538C72.3257 2.70734 72.3503 2.76678 72.394 2.81065C72.4378 2.85452 72.4972 2.87925 72.5591 2.87939H113.045C113.106 2.87925 113.166 2.85452 113.21 2.81065C113.253 2.76678 113.278 2.70734 113.278 2.64538C113.278 2.58341 113.253 2.52397 113.21 2.4801C113.166 2.43623 113.106 2.41151 113.045 2.41137Z" fill="#CCCCCC"/>
<path d="M59.4074 9.37345C58.6474 9.37397 57.9187 9.67623 57.3815 10.2138C56.8443 10.7513 56.5426 11.4802 56.5426 12.2401C56.5426 13.0001 56.8443 13.7289 57.3815 14.2665C57.9187 14.804 58.6474 15.1063 59.4074 15.1068H101.989C101.775 15.5 101.459 15.8282 101.074 16.057C100.689 16.2857 100.25 16.4066 99.8021 16.407H15.1608C14.0565 16.4057 12.9979 15.9662 12.2176 15.1849C11.4372 14.4035 10.9989 13.3444 10.999 12.2401C10.9996 11.1361 11.4381 10.0773 12.2183 9.29618C12.9985 8.51501 14.0568 8.07522 15.1608 8.07329H99.8021C100.25 8.07362 100.689 8.19453 101.074 8.42331C101.459 8.6521 101.775 8.9803 101.989 9.37345L59.4074 9.37345Z" fill="#FE574E"/>
<path d="M102.045 13.5271H61.5601C61.4982 13.5272 61.4388 13.552 61.395 13.5958C61.3512 13.6397 61.3267 13.6991 61.3267 13.7611C61.3267 13.8231 61.3512 13.8825 61.395 13.9264C61.4388 13.9703 61.4982 13.995 61.5601 13.9951H102.045C102.108 13.9951 102.167 13.9705 102.211 13.9266C102.255 13.8827 102.28 13.8232 102.28 13.7611C102.28 13.699 102.255 13.6395 102.211 13.5956C102.167 13.5517 102.108 13.5271 102.045 13.5271Z" fill="#CCCCCC"/>
<path d="M102.046 12.0061H61.5607C61.4986 12.0061 61.4391 12.0308 61.3952 12.0746C61.3513 12.1185 61.3267 12.178 61.3267 12.2401C61.3267 12.3022 61.3513 12.3617 61.3952 12.4056C61.4391 12.4495 61.4986 12.4741 61.5607 12.4741H102.046C102.108 12.4741 102.168 12.4495 102.212 12.4056C102.255 12.3617 102.28 12.3022 102.28 12.2401C102.28 12.178 102.255 12.1185 102.212 12.0746C102.168 12.0308 102.108 12.0061 102.046 12.0061Z" fill="#CCCCCC"/>
<path d="M102.045 10.4849H61.5601C61.4982 10.485 61.4388 10.5097 61.395 10.5536C61.3512 10.5975 61.3267 10.6569 61.3267 10.7189C61.3267 10.7808 61.3512 10.8403 61.395 10.8841C61.4388 10.928 61.4982 10.9527 61.5601 10.9529H102.045C102.076 10.953 102.107 10.947 102.135 10.9352C102.164 10.9235 102.19 10.9063 102.211 10.8845C102.233 10.8628 102.25 10.837 102.262 10.8086C102.274 10.7801 102.28 10.7496 102.28 10.7189C102.28 10.6881 102.274 10.6576 102.262 10.6292C102.25 10.6008 102.233 10.5749 102.211 10.5532C102.19 10.5315 102.164 10.5142 102.135 10.5025C102.107 10.4908 102.076 10.4848 102.045 10.4849Z" fill="#CCCCCC"/>
<path d="M48.4083 17.7165C47.6484 17.717 46.9197 18.0192 46.3825 18.5568C45.8453 19.0943 45.5435 19.8232 45.5435 20.5831C45.5435 21.3431 45.8453 22.0719 46.3825 22.6095C46.9197 23.1471 47.6484 23.4493 48.4083 23.4498H90.9901C90.7759 23.843 90.4598 24.1712 90.075 24.4C89.6901 24.6287 89.2508 24.7497 88.8031 24.75H4.16173C3.05745 24.7488 1.99884 24.3092 1.21848 23.5279C0.438121 22.7466 -0.000137394 21.6874 3.23102e-08 20.5832C0.000558722 19.4791 0.439041 18.4204 1.21925 17.6392C1.99945 16.858 3.05767 16.4182 4.16173 16.4163H88.8031C89.2508 16.4166 89.6901 16.5375 90.075 16.7663C90.4598 16.9951 90.7759 17.3233 90.9901 17.7165L48.4083 17.7165Z" fill="#CCCCCC"/>
<path d="M91.0465 21.8701H50.5611C50.4991 21.8703 50.4397 21.895 50.396 21.9388C50.3522 21.9827 50.3276 22.0421 50.3276 22.1041C50.3276 22.1661 50.3522 22.2255 50.396 22.2694C50.4397 22.3133 50.4991 22.338 50.5611 22.3381H91.0465C91.1085 22.3381 91.168 22.3135 91.2119 22.2696C91.2558 22.2257 91.2805 22.1662 91.2805 22.1041C91.2805 22.0421 91.2558 21.9825 91.2119 21.9386C91.168 21.8948 91.1085 21.8701 91.0465 21.8701Z" fill="#CCCCCC"/>
<path d="M91.0465 20.3491H50.5612C50.5304 20.3491 50.5 20.3552 50.4716 20.3669C50.4432 20.3787 50.4174 20.3959 50.3957 20.4176C50.374 20.4394 50.3567 20.4652 50.345 20.4936C50.3332 20.522 50.3271 20.5524 50.3271 20.5831C50.3271 20.6139 50.3332 20.6443 50.345 20.6727C50.3567 20.7011 50.374 20.7269 50.3957 20.7486C50.4174 20.7703 50.4432 20.7876 50.4716 20.7993C50.5 20.8111 50.5304 20.8171 50.5612 20.8171H91.0465C91.0773 20.8171 91.1077 20.8111 91.1361 20.7993C91.1645 20.7876 91.1903 20.7703 91.212 20.7486C91.2337 20.7269 91.251 20.7011 91.2627 20.6727C91.2745 20.6443 91.2806 20.6139 91.2806 20.5831C91.2806 20.5524 91.2745 20.522 91.2627 20.4936C91.251 20.4652 91.2337 20.4394 91.212 20.4176C91.1903 20.3959 91.1645 20.3787 91.1361 20.3669C91.1077 20.3552 91.0773 20.3491 91.0465 20.3491Z" fill="#CCCCCC"/>
<path d="M91.0465 18.8279H50.5612C50.4991 18.8279 50.4396 18.8525 50.3957 18.8964C50.3518 18.9403 50.3271 18.9998 50.3271 19.0619C50.3271 19.124 50.3518 19.1835 50.3957 19.2274C50.4396 19.2712 50.4991 19.2959 50.5612 19.2959H91.0465C91.0773 19.2959 91.1077 19.2899 91.1361 19.2781C91.1645 19.2663 91.1903 19.2491 91.212 19.2274C91.2337 19.2056 91.251 19.1798 91.2627 19.1514C91.2745 19.123 91.2806 19.0926 91.2806 19.0619C91.2806 19.0312 91.2745 19.0007 91.2627 18.9723C91.251 18.9439 91.2337 18.9181 91.212 18.8964C91.1903 18.8747 91.1645 18.8574 91.1361 18.8457C91.1077 18.8339 91.0773 18.8279 91.0465 18.8279Z" fill="#CCCCCC"/>
</svg>
